<svg width="64" height="64" viewBox="0 0 64 64" fill="none" xmlns="http://www.w3.org/2000/svg">
<path d="M37.3333 7.99998C37.3333 6.52722 38.5272 5.33331 40 5.33331H50.6667C52.7884 5.33331 54.8232 6.17617 56.3235 7.67646C57.8238 9.17675 58.6667 11.2116 58.6667 13.3333V50.6666C58.6667 52.7884 57.8238 54.8232 56.3235 56.3235C54.8232 57.8238 52.7884 58.6666 50.6667 58.6666H40C38.5272 58.6666 37.3333 57.4727 37.3333 56C37.3333 54.5272 38.5272 53.3333 40 53.3333H50.6667C51.3739 53.3333 52.0522 53.0524 52.5523 52.5523C53.0524 52.0522 53.3333 51.3739 53.3333 50.6666V13.3333C53.3333 12.6261 53.0524 11.9478 52.5523 11.4477C52.0522 10.9476 51.3739 10.6666 50.6667 10.6666H40C38.5272 10.6666 37.3333 9.47274 37.3333 7.99998Z" fill="white"/>
<path d="M24.781 16.781C25.8224 15.7396 27.5109 15.7396 28.5523 16.781L41.8856 30.1144C42.927 31.1558 42.927 32.8442 41.8856 33.8856L28.5523 47.2189C27.5109 48.2603 25.8224 48.2603 24.781 47.2189C23.7396 46.1775 23.7396 44.4891 24.781 43.4477L33.5621 34.6666H7.99999C6.52724 34.6666 5.33333 33.4727 5.33333 32C5.33333 30.5272 6.52724 29.3333 7.99999 29.3333H33.5621L24.781 20.5523C23.7396 19.5109 23.7396 17.8224 24.781 16.781Z" fill="white"/>
</svg>
