<svg width="120" height="81" viewBox="0 0 120 81" fill="none" xmlns="http://www.w3.org/2000/svg">
<path d="M38.0288 79.4138L22.7658 80.1464L22.6437 66.0434H15.6227L15.1953 79.4138H1.51968L2.67967 36.4942L17.21 37.1658L16.2943 59.0835H23.071L24 5.49136L38.6667 5.66666L38.0288 79.4138Z" fill="#7928A4"/>
<path d="M77.4378 45.4689C77.4378 46.9748 77.3666 48.6334 77.2242 50.4446C77.0817 52.2558 76.8477 54.1281 76.5221 56.0614C76.1965 57.9947 75.7691 59.9585 75.24 61.9529C74.7312 63.9269 74.0902 65.8297 73.3168 67.6613C72.5435 69.4928 71.6379 71.2125 70.6 72.8202C69.5825 74.4075 68.4021 75.8015 67.059 77.0022C65.7362 78.1826 64.2506 79.1085 62.6022 79.7801C60.9538 80.472 59.1222 80.818 57.1075 80.818C54.7468 80.818 52.6914 80.4313 50.9413 79.658C49.2115 78.905 47.7259 77.8875 46.4845 76.6054C45.2431 75.3029 44.2256 73.797 43.4319 72.0875C42.6382 70.3577 42.0175 68.5363 41.5698 66.6234C41.1221 64.6901 40.8066 62.7262 40.6235 60.7319C40.4607 58.7172 40.3793 56.7838 40.3793 54.9319C40.3793 52.0828 40.5217 49.2439 40.8066 46.4152C41.0916 43.5661 41.4986 40.7272 42.0277 37.8984L56.3138 38.4479C55.7644 41.6429 55.2861 44.8584 54.8791 48.0941C54.4925 51.3095 54.2991 54.5453 54.2991 57.8014C54.2991 58.1473 54.3093 58.6663 54.3297 59.3582C54.3704 60.0298 54.4314 60.7929 54.5128 61.6476C54.5942 62.482 54.7061 63.3469 54.8486 64.2424C55.0114 65.1174 55.2251 65.9213 55.4896 66.6539C55.7542 67.3865 56.0696 67.9869 56.436 68.4549C56.8226 68.923 57.2703 69.157 57.7791 69.157C58.3693 69.157 58.8984 68.8823 59.3664 68.3328C59.8345 67.763 60.2415 67.01 60.5875 66.0739C60.9538 65.1378 61.2692 64.0592 61.5338 62.8382C61.7984 61.6171 62.0222 60.3452 62.2054 59.0224C62.3885 57.6996 62.531 56.3768 62.6327 55.054C62.7548 53.7312 62.8464 52.5 62.9075 51.3604C62.9889 50.2208 63.0397 49.2134 63.0601 48.3383C63.0804 47.4632 63.0906 46.812 63.0906 46.3846C63.0906 44.7973 63.0601 43.2201 62.999 41.6531C62.9583 40.0658 64.1017 7.05836 64 5.49136L81.3333 6.99999C81.5775 9.80838 77.4378 42.5791 77.4378 45.4689Z" fill="#7928A4"/>
<path d="M115.412 68.5465C115.412 70.2356 115.097 71.6907 114.466 72.9117C113.855 74.1328 113.031 75.1707 111.993 76.0254C110.955 76.8801 109.755 77.5822 108.391 78.1317C107.048 78.6608 105.644 79.078 104.179 79.3833C102.713 79.6885 101.238 79.892 99.7523 79.9938C98.2871 80.0955 96.9134 80.1464 95.6313 80.1464C94.3696 80.1464 93.057 80.0955 91.6935 79.9938C90.3503 79.9124 89.0072 79.7597 87.664 79.5359C86.3209 79.312 84.9981 79.0169 83.6957 78.6506C82.3932 78.264 81.162 77.7857 80.002 77.2159L79.941 37.8984C81.0806 37.4304 82.2915 37.0132 83.5736 36.6469C84.8557 36.2602 86.1581 35.9448 87.4809 35.7005C88.824 35.436 90.157 35.2427 91.4798 35.1206C92.8026 34.9781 94.0847 34.9069 95.3261 34.9069C96.771 34.9069 98.226 34.9985 99.6913 35.1816C101.177 35.3648 102.601 35.67 103.965 36.0974C105.328 36.5248 106.6 37.0844 107.781 37.7763C108.961 38.4479 109.989 39.2823 110.864 40.2795C111.759 41.2766 112.451 42.4366 112.94 43.7594C113.448 45.0822 113.703 46.6085 113.703 48.3383C113.703 49.478 113.54 50.5464 113.214 51.5435C112.889 52.5407 112.421 53.4362 111.81 54.2298C111.2 55.0235 110.457 55.7053 109.582 56.2751C108.707 56.8245 107.72 57.2316 106.621 57.4961C107.943 57.8421 109.144 58.3508 110.223 59.0224C111.322 59.694 112.248 60.508 113.001 61.4645C113.774 62.421 114.364 63.4996 114.771 64.7002C115.198 65.9009 115.412 67.183 115.412 68.5465ZM99.905 51.1467C99.905 50.5565 99.7829 50.0579 99.5387 49.6509C99.2945 49.2236 98.9892 48.8776 98.6229 48.613C98.2769 48.3485 97.8903 48.1552 97.4629 48.0331C97.0559 47.9109 96.6896 47.8499 96.364 47.8499C95.9569 47.8499 95.5601 47.9109 95.1734 48.0331C94.7868 48.1552 94.4103 48.2976 94.044 48.4604L93.8608 55.2372C94.3289 55.2372 94.9089 55.1965 95.6008 55.1151C96.2927 55.0337 96.9541 54.8607 97.585 54.5961C98.2362 54.3112 98.7857 53.9042 99.2334 53.3751C99.6811 52.8256 99.905 52.0828 99.905 51.1467ZM95.5703 61.0982C94.9801 61.0982 94.4103 61.1592 93.8608 61.2813L93.7387 68.2413C94.044 68.3023 94.3391 68.3634 94.624 68.4244C94.9292 68.4651 95.2243 68.4855 95.5092 68.4855C95.9366 68.4855 96.4047 68.4448 96.9134 68.3634C97.4222 68.2616 97.9004 68.0785 98.3481 67.8139C98.7959 67.529 99.1622 67.1525 99.4471 66.6844C99.7523 66.2164 99.905 65.5957 99.905 64.8224C99.905 64.049 99.7523 63.4182 99.4471 62.9297C99.1622 62.4413 98.806 62.0648 98.3787 61.8003C97.9513 61.5154 97.4832 61.3322 96.9745 61.2508C96.4657 61.1491 95.9976 61.0982 95.5703 61.0982Z" fill="#7928A4"/>
<path d="M16.1636 16.6667V17.8116C14.4236 18.3272 14.4945 18.3685 13.399 18.8454C12.3163 19.3094 11.485 19.7862 10.905 20.276C10.325 20.7529 9.92542 21.2556 9.70631 21.784C9.4872 22.3125 9.37764 22.8925 9.37764 23.524C9.37764 24.568 9.68053 25.3607 10.2863 25.902C10.905 26.4305 11.659 26.6947 12.5483 26.6947C13.2572 26.6947 13.8823 26.5529 14.4236 26.2694C14.965 25.9729 15.3903 25.554 15.6996 25.0127C16.009 24.4585 16.1636 23.8076 16.1636 23.06V14.6694C16.1636 13.4449 15.8608 12.5105 15.255 11.866C14.6492 11.2216 13.7148 10.8994 12.4516 10.8994C11.8845 10.8994 11.2981 10.9509 10.6923 11.054C10.0865 11.1571 10.6923 11.054 10.1788 11.1603L10.2283 10.6867C10.1896 11.1378 10.1252 11.6018 10.035 12.0787C9.95764 12.5427 9.86098 12.968 9.74498 13.3547C9.62898 13.7285 9.49364 14.012 9.33898 14.2054C9.15853 14.4116 8.90076 14.5727 8.56564 14.6887C8.23053 14.8047 7.88898 14.8627 7.54098 14.8627C7.08987 14.8627 6.72898 14.7725 6.45831 14.592C6.20053 14.3987 6.07164 14.1151 6.07164 13.7414C6.07164 13.2387 6.31009 12.7296 6.78698 12.214C7.27676 11.6985 7.90831 11.228 8.68164 10.8027C9.46787 10.3774 10.3121 10.0358 11.2143 9.77802C12.1294 9.52025 13.0123 9.39136 13.863 9.39136C15.2292 9.39136 16.3248 9.59758 17.1496 10.01C17.9874 10.4096 18.5932 10.9767 18.967 11.7114C19.3536 12.446 19.547 13.3225 19.547 14.3407V25.1287C19.547 25.5411 19.6114 25.8827 19.7403 26.1534C19.8692 26.4111 20.0496 26.598 20.2816 26.714C20.5265 26.83 20.8036 26.888 21.113 26.888C21.5254 26.888 21.9314 26.8236 22.331 26.6947C22.7434 26.5529 22.908 26.5529 23.3333 26.2694V26.888C22.4956 27.8805 21.983 28.3122 21.287 28.6087C20.591 28.8922 19.8885 29.034 19.1796 29.034C18.4579 29.034 17.8779 28.8729 17.4396 28.5507C17.0014 28.2285 16.6792 27.7645 16.473 27.1587C16.2796 26.54 16.1701 25.8054 16.1443 24.9547L16.2023 24.8967C15.9961 25.6958 15.6545 26.4111 15.1776 27.0427C14.7008 27.6614 14.1208 28.1511 13.4376 28.512C12.7545 28.8729 12.007 29.0534 11.195 29.0534C9.68698 29.0534 8.42387 28.6474 7.40564 27.8354C6.40031 27.0105 5.89764 25.8247 5.89764 24.278C5.89764 23.4531 6.03942 22.7249 6.32298 22.0934C6.61942 21.4618 7.1672 20.856 7.96631 20.276C8.77831 19.696 9.94476 19.1031 11.4656 18.4974C12.9865 17.8787 13.7276 17.44 16.1636 16.6667Z" fill="#100C04"/>
<path d="M36.2416 9.41069C36.8216 9.41069 37.2727 9.5718 37.5949 9.89402C37.9301 10.2034 38.0976 10.6351 38.0976 11.1894C38.0976 11.8467 37.8914 12.3751 37.4789 12.7747C37.0794 13.1742 36.5509 13.374 35.8936 13.374C35.6101 13.374 35.3265 13.3354 35.0429 13.258C34.7594 13.1807 34.4565 13.1034 34.1343 13.026C33.8121 12.9487 33.4512 12.91 33.0516 12.91C32.7036 12.91 32.3556 12.968 32.0076 13.084C31.6725 13.2 31.3374 13.3676 31.0023 13.5867C30.6801 13.7929 30.6285 13.7036 30.3063 14V13.258C31.2214 12.3558 31.6209 11.9047 32.2783 11.3634C32.9356 10.822 33.4963 10.4096 33.9603 10.126C34.4372 9.84247 34.8561 9.65558 35.2169 9.56536C35.5778 9.46224 35.9194 9.41069 36.2416 9.41069ZM30.3063 12.8907V27.4294L33.3996 28.0867V28.6667H24.1196V28.0867L26.9229 27.4294V13.026C26.7554 12.91 26.5492 12.7747 26.3043 12.62C26.0594 12.4654 25.7565 12.2849 25.3956 12.0787C25.0347 11.8725 24.6158 11.6405 24.1389 11.3827V10.996L30.0936 9.17869H30.2483L30.3063 12.8907Z" fill="#C084E1"/>
<path d="M44.9824 23.7174C44.9824 24.6454 45.2724 25.3478 45.8524 25.8247C46.4324 26.2887 47.2122 26.5207 48.1917 26.5207C48.7331 26.5207 49.3002 26.4691 49.8931 26.366C50.486 26.2629 51.1691 26.1018 51.9424 25.8827V26.5207C50.8597 27.178 49.9704 27.6936 49.2744 28.0674C48.5784 28.4282 47.9726 28.6796 47.4571 28.8214C46.9544 28.976 46.4324 29.0534 45.8911 29.0534C45.1306 29.0534 44.4282 28.8858 43.7837 28.5507C43.1393 28.2156 42.6173 27.7 42.2177 27.004C41.8182 26.2951 41.6184 25.38 41.6184 24.2587V12.2334L39.2597 10.7447V10.4547C39.4273 10.3387 39.64 10.1969 39.8977 10.0294C40.1684 9.84891 40.4713 9.64269 40.8064 9.41069C41.1415 9.17869 41.5088 8.92736 41.9084 8.65669C42.3208 8.37313 42.7591 8.07669 43.2231 7.76735C43.6999 7.45802 44.1962 7.12936 44.7117 6.78135H44.9824V10.3967V23.7174ZM44.9824 11.7307V10.01L51.4011 9.73936L51.0917 11.7307H44.9824Z" fill="#100C04"/>
<path d="M57.1657 5.52469C56.3795 5.52469 55.7544 5.26691 55.2904 4.75135C54.8393 4.22291 54.6137 3.62358 54.6137 2.95336C54.6137 2.27024 54.8393 1.69024 55.2904 1.21336C55.7544 0.723578 56.3795 0.478689 57.1657 0.478689C57.9391 0.478689 58.5448 0.723578 58.9831 1.21336C59.4342 1.69024 59.6597 2.27024 59.6597 2.95336C59.6597 3.62358 59.4342 4.22291 58.9831 4.75135C58.5448 5.26691 57.9391 5.52469 57.1657 5.52469ZM59.1571 9.17869L59.1184 12.794V27.4294L61.9411 28.0867V28.6667H52.951V28.0867L55.7544 27.4294V12.968C55.6126 12.8649 55.3935 12.7231 55.0971 12.5427C54.8135 12.3622 54.4848 12.1625 54.1111 11.9434C53.7502 11.7242 53.3699 11.5051 52.9704 11.286V10.88L59.0024 9.17869H59.1571Z" fill="#100C04"/>
<path d="M73.9051 9.35269C75.1037 9.35269 76.0768 9.48158 76.8244 9.73936C77.572 9.98425 78.1197 10.3129 78.4677 10.7254C78.8157 11.1249 78.9897 11.5502 78.9897 12.0014C78.9897 12.4009 78.9124 12.7489 78.7577 13.0454C78.6031 13.3289 78.3775 13.548 78.0811 13.7027C77.7975 13.8445 77.4624 13.9154 77.0757 13.9154C76.8953 13.9154 76.6826 13.8058 76.4377 13.5867C76.2057 13.3547 75.9415 13.0711 75.6451 12.736C75.3486 12.4009 75.02 12.0658 74.6591 11.7307C74.2982 11.3956 73.9115 11.112 73.4991 10.88C73.0866 10.648 72.6484 10.532 72.1844 10.532C71.308 10.532 70.5153 10.7898 69.8064 11.3054C69.0975 11.808 68.5368 12.5942 68.1244 13.664C67.712 14.7209 67.5057 16.0742 67.5057 17.724C67.5057 19.7089 67.7635 21.3458 68.2791 22.6347C68.7946 23.9107 69.5486 24.858 70.5411 25.4767C71.5335 26.0954 72.7386 26.4047 74.1564 26.4047C75.1102 26.4047 76.0253 26.2049 76.9017 25.8054C77.7911 25.4058 78.5515 24.8129 79.1831 24.0267L79.5117 24.3167C78.79 25.4638 78.0553 26.3854 77.3077 27.0814C76.5602 27.7774 75.7804 28.28 74.9684 28.5894C74.1564 28.8987 73.2671 29.0534 72.3004 29.0534C70.728 29.0534 69.3166 28.686 68.0664 27.9514C66.8291 27.2038 65.8495 26.1211 65.1277 24.7034C64.406 23.2856 64.0451 21.5778 64.0451 19.58C64.0451 18.1107 64.2835 16.7574 64.7604 15.52C65.2373 14.2698 65.914 13.1871 66.7904 12.272C67.6668 11.344 68.7044 10.6287 69.9031 10.126C71.1146 9.61047 72.4486 9.35269 73.9051 9.35269Z" fill="#C084E1"/>
<path d="M87.0538 27.4294L89.8958 28.0867V28.6667H80.8865V28.0867L83.6898 27.4294V3.72669C83.5223 3.62358 83.2903 3.49469 82.9939 3.34002C82.7103 3.18536 82.3623 3.01136 81.9498 2.81802C81.5503 2.62469 81.0992 2.41202 80.5965 2.18002V1.83202L86.9572 0.304688H87.1118L87.0538 3.59136V27.4294Z" fill="#100C04"/>
<path d="M100.842 9.35269C102.17 9.35269 103.324 9.6298 104.303 10.184C105.296 10.7382 106.082 11.5567 106.662 12.6394C107.242 13.722 107.59 15.056 107.706 16.6414H95.4904L95.6265 15.4814H104.116L104.187 16.1387C104.071 14.8627 103.852 13.8058 103.53 12.968C103.22 12.1302 102.802 11.4987 102.273 11.0734C101.758 10.648 101.113 10.4354 100.34 10.4354C99.3344 10.4354 98.4644 10.7254 97.7298 11.3054C97.008 11.8854 96.4473 12.7296 96.0478 13.838C95.6482 14.9336 95.4484 16.2676 95.4484 17.84C95.4484 19.7991 95.7256 21.4167 96.2798 22.6927C96.8469 23.9558 97.6589 24.8902 98.7158 25.496C99.7727 26.1018 101.042 26.4047 102.524 26.4047C103.169 26.4047 103.807 26.3209 104.438 26.1534C105.07 25.9729 105.663 25.7087 106.217 25.3607C106.784 24.9998 107.287 24.5551 107.725 24.0267L108.073 24.3167C107.313 25.4638 106.546 26.3854 105.772 27.0814C105.012 27.7774 104.206 28.28 103.356 28.5894C102.505 28.8987 101.584 29.0534 100.591 29.0534C98.9542 29.0534 97.4849 28.6796 96.1831 27.932C94.8942 27.1845 93.8695 26.1018 93.1091 24.684C92.3615 23.2662 91.9878 21.5456 91.9878 19.522C91.9878 17.6789 92.3358 15.9905 93.0318 14.4567C93.7407 12.91 94.7524 11.6727 96.0671 10.7447C97.3947 9.81669 98.9864 9.35269 100.842 9.35269Z" fill="#100C04"/>
</svg>
